<?xml version="1.0" encoding="UTF-8"?>
<!DOCTYPE svg PUBLIC "-//W3C//DTD SVG 1.1//EN" "http://www.w3.org/Graphics/SVG/1.1/DTD/svg11.dtd">
<!-- Creator: CorelDRAW -->
<svg xmlns="http://www.w3.org/2000/svg" xml:space="preserve" width="123.697mm" height="17.7674mm" style="shape-rendering:geometricPrecision; text-rendering:geometricPrecision; image-rendering:optimizeQuality; fill-rule:evenodd; clip-rule:evenodd"
viewBox="0 0 123.697 17.7674"
 xmlns:xlink="http://www.w3.org/1999/xlink">
 <defs>
  <style type="text/css">
   <![CDATA[
    .fil0 {fill:#104378}
   ]]>
  </style>
 </defs>
 <g id="Layer_x0020_1">
  <metadata id="CorelCorpID_0Corel-Layer"/>
  <g id="_250000056">
   <g>
    <path id="_249985584" class="fil0" d="M4.84171 9.92752l1.6314 -3.98231 1.6314 3.98231 -3.26281 0zm4.22761 2.3857l1.1226 2.754 2.8243 0 -5.26261 -12.3672 -2.4911 0 -5.26261 12.3672 2.7541 0 1.1228 -2.754 5.19251 0z"/>
    <path id="_249985224" class="fil0" d="M17.6124 5.22601l1.0437 0 1.0437 0c0.678201,0 1.2135,0.1578 1.6051,0.473801 0.391901,0.315701 0.587601,0.777701 0.587601,1.3858l0 0.0351001c0,0.526001 -0.1871,0.967802 -0.561101,1.3245 -0.374401,0.356601 -0.900601,0.534901 -1.579,0.534901l-1.0963 0 -1.0437 0 0 -3.75411zm-2.7015 3.75411l0 4.00431 0 2.0828 2.7015 0 0 -2.0828 0 -1.6009 2.0524 0c0.690001,0 1.3361,-0.0906001 1.9384,-0.2721 0.602301,-0.1812 1.1285,-0.453001 1.5786,-0.815501 0.450401,-0.362601 0.804101,-0.812901 1.0615,-1.3508 0.2573,-0.537901 0.385801,-1.1636 0.385801,-1.877l0 -0.0350001c0,-0.631801 -0.1082,-1.2076 -0.324401,-1.728 -0.2164,-0.520601 -0.526401,-0.967802 -0.929802,-1.342 -0.403601,-0.374401 -0.894601,-0.663801 -1.4737,-0.868401 -0.578601,-0.2045 -1.2365,-0.307 -1.9733,-0.307l-5.01701 0 0 2.0073 0 0.431001 0 3.75411z"/>
    <polygon id="_249984960" class="fil0" points="26.7518,2.7877 26.7518,15.0672 29.4533,15.0672 29.4533,2.7877 "/>
   </g>
   <g>
    <path id="_249984696" class="fil0" d="M54.6863 5.82241c0,-0.970502 -0.359601,-1.7424 -1.0789,-2.3155 -0.719201,-0.573001 -1.7102,-0.859501 -2.9733,-0.859501l-5.70131 0 0 12.2795 5.84171 0c0.689901,0 1.3185,-0.0702001 1.8858,-0.2105 0.567101,-0.1403 1.0524,-0.350801 1.456,-0.631601 0.403401,-0.2807 0.713301,-0.631501 0.929702,-1.0525 0.2163,-0.420901 0.324501,-0.912201 0.324501,-1.4735l0 -0.0350001c0,-0.818701 -0.2047,-1.459 -0.613901,-1.921 -0.409401,-0.462001 -0.970702,-0.827401 -1.6842,-1.0963 0.2222,-0.117 0.429801,-0.2574 0.622901,-0.421001 0.1929,-0.1639 0.362401,-0.353801 0.508701,-0.570201 0.1462,-0.2163 0.2631,-0.459101 0.350801,-0.728001 0.0876001,-0.269 0.1315,-0.578901 0.1315,-0.929702l0 -0.0352001zm-3.14001 -0.482401c0.304,0.2165 0.456101,0.529301 0.456101,0.938602l0 0.0351001c0,0.456001 -0.1755,0.786401 -0.526301,0.991002 -0.350801,0.2048 -0.824501,0.3071 -1.421,0.3071l-2.491 0 0 -2.5963 2.6665 0c0.573001,0 1.0116,0.1082 1.3157,0.324501zm0.666601 4.87681c0.315801,0.2398 0.473701,0.564301 0.473701,0.973602l0 0.0350001c0,0.456101 -0.1697,0.792401 -0.508901,1.0087 -0.339101,0.2164 -0.806801,0.324501 -1.4032,0.324501l-3.21041 0 0 -2.7014 3.12261 0c0.701601,0 1.2105,0.1198 1.5262,0.359601z"/>
    <path id="_249984384" class="fil0" d="M57.4054 2.6474l0 7.01681c0,1.8127 0.473701,3.17511 1.4209,4.08741 0.947302,0.912201 2.2454,1.3682 3.89441,1.3682 0.818701,0 1.5612,-0.1139 2.2278,-0.342101 0.666601,-0.2279 1.2339,-0.573001 1.7016,-1.0349 0.467901,-0.461901 0.827401,-1.038 1.0789,-1.7279 0.2515,-0.690001 0.377101,-1.5028 0.377101,-2.4384l0 -6.92911 -2.7015 0 0 7.03441c0,0.982302 -0.2339,1.7191 -0.701601,2.2102 -0.467901,0.491301 -1.1169,0.736801 -1.9473,0.736801 -0.830201,0 -1.4794,-0.2542 -1.9471,-0.763101 -0.467801,-0.508701 -0.701601,-1.2659 -0.701601,-2.2716l0 -6.94671 -2.7016 0z"/>
    <polygon id="_249984264" class="fil0" points="70.983,2.6474 70.983,14.9269 73.6845,14.9269 73.6845,2.6474 "/>
    <polygon id="_249984408" class="fil0" points="76.7544,2.6474 76.7544,14.9269 85.5782,14.9269 85.5782,12.4709 79.4559,12.4709 79.4559,2.6474 "/>
    <path id="_249984144" class="fil0" d="M87.613 2.6474l0 12.2795 4.78901 0c0.959002,0 1.8391,-0.1579 2.6401,-0.473601 0.801101,-0.315801 1.491,-0.748501 2.0699,-1.2982 0.578901,-0.549601 1.0263,-1.1986 1.3421,-1.9471 0.315701,-0.748501 0.473601,-1.5555 0.473601,-2.4208l0 -0.0352001c0,-0.865401 -0.1579,-1.6695 -0.473601,-2.412 -0.315801,-0.742601 -0.763201,-1.3888 -1.3421,-1.9384 -0.578901,-0.549701 -1.2688,-0.979402 -2.0699,-1.2894 -0.801001,-0.309901 -1.6811,-0.464801 -2.6401,-0.464801l-4.78901 0zm2.7015 2.4384l2.0875 0c0.549701,0 1.0526,0.0906001 1.5087,0.2718 0.456101,0.1813 0.844901,0.435701 1.1665,0.763101 0.321601,0.327501 0.573001,0.719201 0.754301,1.1753 0.1812,0.456101 0.2719,0.953102 0.2719,1.4912l0 0.0351001c0,0.549601 -0.0907001,1.0466 -0.2719,1.491 -0.1813,0.444401 -0.432701,0.830401 -0.754301,1.1577 -0.321601,0.327401 -0.710401,0.579101 -1.1665,0.754401 -0.456101,0.1755 -0.959002,0.2631 -1.5087,0.2631l-2.0875 0 0 -7.40271z"/>
    <polygon id="_249984888" class="fil0" points="101.331,2.6474 101.331,5.05061 104.015,5.05061 105.301,5.05061 110.593,5.05061 110.593,2.6474 "/>
    <polygon id="_249984792" class="fil0" points="104.015,7.54171 101.331,7.54171 101.331,14.9269 110.681,14.9269 110.681,12.5236 104.015,12.5236 104.015,9.94492 109.804,9.94492 109.804,7.54171 105.301,7.54171 "/>
    <path id="_250000344" class="fil0" d="M113.084 2.6474l0 12.2795 2.7015 0 0 -3.92941 2.1226 0 2.6313 3.92941 3.15761 0 -2.9997 -4.38561c0.783501,-0.2923 1.418,-0.751301 1.9034,-1.377 0.485301,-0.625701 0.727901,-1.4356 0.727901,-2.4296l0 -0.0350001c0,-1.2748 -0.406401,-2.2689 -1.2192,-2.9823 -0.812801,-0.713501 -1.9501,-1.07 -3.41201,-1.07l-5.61341 0zm2.7015 2.4384l2.684 0c0.666501,0 1.1871,0.1462 1.5612,0.438401 0.374201,0.2924 0.561401,0.730901 0.561401,1.3157l0 0.0351001c0,0.526301 -0.1785,0.947302 -0.535101,1.2631 -0.356701,0.315801 -0.868301,0.473601 -1.5349,0.473601l-2.7366 0 0 -3.52591z"/>
   </g>
   <polygon id="_250000224" class="fil0" points="36.7374,0 37.6487,0 37.6487,17.7674 36.7374,17.7674 "/>
  </g>
 </g>
</svg>
