<?xml version="1.0" encoding="UTF-8"?>
<!DOCTYPE svg PUBLIC "-//W3C//DTD SVG 1.1//EN" "http://www.w3.org/Graphics/SVG/1.1/DTD/svg11.dtd">
<!-- Creator: CorelDRAW -->
<svg xmlns="http://www.w3.org/2000/svg" xml:space="preserve" width="123.697mm" height="17.7674mm" style="shape-rendering:geometricPrecision; text-rendering:geometricPrecision; image-rendering:optimizeQuality; fill-rule:evenodd; clip-rule:evenodd"
viewBox="0 0 123.866 17.7917"
 xmlns:xlink="http://www.w3.org/1999/xlink">
 <defs>
  <style type="text/css">
   <![CDATA[
    .fil0 {fill:#104378}
    .fil1 {fill:gray}
   ]]>
  </style>
 </defs>
 <g id="Layer_x0020_1">
  <metadata id="CorelCorpID_0Corel-Layer"/>
  <g id="_431119016">
   <g>
    <path id="_426983368" class="fil0" d="M4.84832 9.94107l1.63363 -3.98774 1.63363 3.98774 -3.26726 0zm4.23338 2.38896l1.12413 2.75776 2.82816 0 -5.26979 -12.3841 -2.4945 0 -5.26979 12.3841 2.75786 0 1.12433 -2.75776 5.1996 0z"/>
    <path id="_426983224" class="fil0" d="M17.6365 5.23314l1.04513 0 1.04513 0c0.679127,0 1.21516,0.158016 1.60729,0.474447 0.392436,0.316131 0.588403,0.778763 0.588403,1.38769l0 0.035148c0,0.526719 -0.187356,0.969122 -0.561867,1.32631 -0.374912,0.357087 -0.901831,0.535631 -1.58116,0.535631l-1.0978 0 -1.04513 0 0 -3.75923zm-2.70519 3.75923l0 4.00977 0 2.08565 2.70519 0 0 -2.08565 0 -1.60309 2.0552 0c0.690943,0 1.33793,-0.0907238 1.94105,-0.272472 0.603123,-0.181448 1.13004,-0.453619 1.58076,-0.816614 0.451015,-0.363095 0.805199,-0.814011 1.06295,-1.35265 0.257652,-0.538635 0.386327,-1.16519 0.386327,-1.87956l0 -0.0350478c0,-0.632663 -0.108348,-1.20925 -0.324843,-1.73036 -0.216696,-0.521311 -0.527119,-0.969122 -0.931071,-1.34383 -0.404152,-0.374912 -0.895822,-0.664707 -1.47571,-0.869587 -0.579391,-0.204779 -1.23819,-0.30742 -1.976,-0.30742l-5.02386 0 0 2.01004 0 0.431589 0 3.75923z"/>
    <polygon id="_426982360" class="fil0" points="26.7884,2.79151 26.7884,15.0878 29.4935,15.0878 29.4935,2.79151 "/>
   </g>
   <g>
    <path id="_426982264" class="fil1" d="M54.7609 5.83036c0,-0.971826 -0.360091,-1.74478 -1.08037,-2.31866 -0.720183,-0.573783 -1.71254,-0.860674 -2.97736,-0.860674l-5.70909 0 0 12.2963 5.84968 0c0.690843,0 1.3203,-0.0702959 1.88838,-0.210788 0.567875,-0.140492 1.05384,-0.351279 1.45799,-0.632463 0.403951,-0.281084 0.714275,-0.632363 0.93097,-1.05394 0.216596,-0.421475 0.324943,-0.913447 0.324943,-1.47551l0 -0.0350478c0,-0.819819 -0.20498,-1.46099 -0.614739,-1.92363 -0.409959,-0.462631 -0.972026,-0.828531 -1.6865,-1.0978 0.222504,-0.11716 0.430387,-0.257752 0.623751,-0.421575 0.193164,-0.164124 0.362895,-0.354283 0.509395,-0.570979 0.1464,-0.216596 0.26346,-0.459727 0.351279,-0.728995 0.0877197,-0.269368 0.13168,-0.579691 0.13168,-0.93097l0 -0.0352481zm-3.14429 -0.483059c0.304415,0.216796 0.456723,0.530023 0.456723,0.939883l0 0.035148c0,0.456623 -0.17574,0.787475 -0.527019,0.992354 -0.351279,0.20508 -0.825627,0.30752 -1.42294,0.30752l-2.4944 0 0 -2.59985 2.67014 0c0.573783,0 1.01298,0.108348 1.3175,0.324943zm0.667511 4.88346c0.316232,0.240128 0.474347,0.565071 0.474347,0.97493l0 0.0350478c0,0.456723 -0.169932,0.793483 -0.509595,1.01008 -0.339563,0.216696 -0.807902,0.324943 -1.40512,0.324943l-3.21479 0 0 -2.70509 3.12687 0c0.702559,0 1.21215,0.119964 1.52829,0.360091z"/>
    <path id="_426982144" class="fil1" d="M57.4837 2.65102l0 7.02639c0,1.81518 0.474347,3.17944 1.42284,4.09299 0.948594,0.913447 2.24847,1.37007 3.89972,1.37007 0.819819,0 1.56333,-0.114056 2.23084,-0.342567 0.667511,-0.228211 1.23559,-0.573783 1.70393,-1.03631 0.468539,-0.462531 0.828531,-1.03942 1.08037,-1.73026 0.251844,-0.690943 0.377615,-1.50485 0.377615,-2.44173l0 -6.93857 -2.70519 0 0 7.04401c0,0.983642 -0.23422,1.72145 -0.702559,2.21322 -0.468539,0.491971 -1.11843,0.737807 -1.94996,0.737807 -0.831334,0 -1.48142,-0.254547 -1.94976,-0.764143 -0.468439,-0.509395 -0.702559,-1.26763 -0.702559,-2.2747l0 -6.95619 -2.70529 0z"/>
    <polygon id="_426982120" class="fil1" points="71.0799,2.65102 71.0799,14.9473 73.7851,14.9473 73.7851,2.65102 "/>
    <polygon id="_426981592" class="fil1" points="76.8592,2.65102 76.8592,14.9473 85.695,14.9473 85.695,12.4879 79.5644,12.4879 79.5644,2.65102 "/>
    <path id="_426981952" class="fil1" d="M87.7326 2.65102l0 12.2963 4.79554 0c0.96031,0 1.84161,-0.158116 2.64371,-0.474247 0.802195,-0.316232 1.49304,-0.749523 2.07273,-1.29997 0.579691,-0.550351 1.0277,-1.20024 1.34393,-1.94976 0.316131,-0.749523 0.474247,-1.55763 0.474247,-2.42411l0 -0.0352481c0,-0.866583 -0.158116,-1.67178 -0.474247,-2.4153 -0.316232,-0.743615 -0.764243,-1.3907 -1.34393,-1.94105 -0.579691,-0.550451 -1.27053,-0.980738 -2.07273,-1.29116 -0.802095,-0.310323 -1.6834,-0.465435 -2.64371,-0.465435l-4.79554 0zm2.70519 2.44173l2.09035 0c0.550451,0 1.05404,0.0907238 1.51076,0.272171 0.456723,0.181548 0.846055,0.436295 1.16809,0.764143 0.322039,0.327948 0.573783,0.720183 0.755331,1.17691 0.181448,0.456723 0.272272,0.954402 0.272272,1.49324l0 0.035148c0,0.550351 -0.0908239,1.04803 -0.272272,1.49304 -0.181548,0.445007 -0.433291,0.831535 -0.755331,1.15928 -0.322039,0.327847 -0.711371,0.579891 -1.16809,0.755431 -0.456723,0.17574 -0.96031,0.26346 -1.51076,0.26346l-2.09035 0 0 -7.41282z"/>
    <polygon id="_431112248" class="fil0" points="101.469,2.65102 101.469,5.0575 104.157,5.0575 105.445,5.0575 110.744,5.0575 110.744,2.65102 "/>
    <polygon id="_431112032" class="fil1" points="104.157,7.55201 101.469,7.55201 101.469,14.9473 110.832,14.9473 110.832,12.5407 104.157,12.5407 104.157,9.95849 109.954,9.95849 109.954,7.55201 105.445,7.55201 "/>
    <path id="_431119136" class="fil1" d="M113.239 2.65102l0 12.2963 2.70519 0 0 -3.93477 2.1255 0 2.6349 3.93477 3.16191 0 -3.0038 -4.39159c0.784571,-0.292699 1.41994,-0.752327 1.906,-1.37888 0.485963,-0.626555 0.728895,-1.43756 0.728895,-2.43292l0 -0.0350478c0,-1.27654 -0.406955,-2.272 -1.22087,-2.98638 -0.813911,-0.714475 -1.95276,-1.07146 -3.41666,-1.07146l-5.62107 0zm2.70519 2.44173l2.68767 0c0.667411,0 1.18872,0.1464 1.56333,0.438999 0.374711,0.2928 0.562167,0.731899 0.562167,1.3175l0 0.035148c0,0.527019 -0.178744,0.948594 -0.535831,1.26483 -0.357187,0.316232 -0.869487,0.474247 -1.537,0.474247l-2.74034 0 0 -3.53072z"/>
   </g>
   <polygon id="_431119640" class="fil1" points="36.7875,0 37.7,0 37.7,17.7917 36.7875,17.7917 "/>
  </g>
 </g>
</svg>
